# 3ds Max Wavefront OBJ Exporter v0.97b - (c)2007 guruware
# File Created: 17.02.2021 21:29:38

#
# object Bundle_2
#

v  30.1743 -0.1783 61.1915
v  29.8734 30.4900 62.5973
v  28.9521 30.6783 59.7573
v  29.2537 -0.0570 58.3485
v  31.8767 30.6783 60.3834
v  32.1783 -0.0570 58.9746
v  29.8223 32.9534 62.8356
v  28.8969 33.3417 60.0150
v  31.8215 33.3417 60.6412
v  29.7210 35.3185 63.3091
v  28.7843 35.9684 60.5408
v  31.7089 35.9684 61.1670
v  29.5699 37.6127 64.0146
v  28.6166 38.5164 61.3243
v  31.5412 38.5164 61.9505
v  29.3708 39.8183 64.9447
v  28.3954 40.9660 62.3573
v  31.3200 40.9660 62.9834
v  29.1251 41.9177 66.0919
v  28.1226 43.2976 63.6313
v  31.0472 43.2976 64.2575
v  28.8346 43.8932 67.4487
v  27.8000 45.4916 65.1383
v  30.7246 45.4916 65.7645
v  28.4946 45.7615 69.0370
v  27.4324 47.5114 66.8553
v  30.3569 47.5114 67.4815
v  28.4932 45.7682 69.0433
v  27.4121 47.6115 66.9498
v  30.3367 47.6115 67.5760
v  28.1351 47.3773 70.7159
v  27.0253 49.3498 68.7567
v  29.9498 49.3498 69.3829
v  27.7553 48.7796 72.4898
v  26.6040 50.9052 70.7242
v  29.5286 50.9052 71.3503
v  27.3504 49.9969 74.3809
v  26.1549 52.2553 72.8217
v  29.0795 52.2553 73.4479
v  26.9234 51.0219 76.3754
v  25.6813 53.3922 75.0338
v  28.6059 53.3922 75.6599
v  26.4773 51.8474 78.4590
v  25.1865 54.3078 77.3448
v  28.1111 54.3078 77.9710
v  26.0150 52.4663 80.6179
v  24.6738 54.9942 79.7394
v  27.5984 54.9942 80.3655
v  25.5310 52.8787 82.8788
v  24.1509 55.4397 82.1814
v  27.0755 55.4397 82.8076
v  24.0793 53.7712 89.6587
v  23.6180 55.4778 84.6706
v  26.5426 55.4778 85.2968
v  18.3979 -0.1783 53.8777
v  18.2861 21.8465 53.9750
v  19.2496 21.8371 51.1685
v  19.3612 -0.1499 51.0713
v  21.1984 21.8371 53.4060
v  21.3100 -0.1499 53.3088
v  18.3158 25.3578 53.9492
v  19.2783 25.2350 51.1435
v  21.2271 25.2350 53.3810
v  18.4410 28.8836 53.8402
v  19.3981 28.6100 51.0391
v  21.3469 28.6100 53.2766
v  18.6610 32.3932 53.6485
v  19.6087 31.9695 50.8556
v  21.5575 31.9695 53.0931
v  18.9754 35.8811 53.3747
v  19.9097 35.3083 50.5935
v  21.8585 35.3083 52.8311
v  19.3836 39.3417 53.0192
v  20.3004 38.6209 50.2532
v  22.2492 38.6209 52.4907
v  19.8851 42.7696 52.5823
v  20.7805 41.9022 49.8351
v  22.7293 41.9022 52.0726
v  20.4753 46.1351 52.0683
v  21.3516 45.1590 49.3376
v  23.3004 45.1590 51.5751
v  21.9228 53.7462 50.8076
v  21.3956 49.0547 49.2994
v  23.3444 49.0547 51.5369
v  22.9521 -0.1783 57.7189
v  23.0534 11.5802 57.7189
v  21.2959 11.5752 58.7335
v  21.1947 -0.1631 58.7335
v  21.2959 11.5752 56.7042
v  21.1947 -0.1631 56.7042
v  23.0265 13.4548 57.7189
v  21.2699 13.3892 58.7335
v  21.2699 13.3892 56.7042
v  22.9130 15.3371 57.7189
v  21.1612 15.1911 58.7335
v  21.1612 15.1911 56.7042
v  22.7134 17.2108 57.7189
v  20.9702 16.9846 58.7335
v  20.9702 16.9846 56.7042
v  22.4283 19.0729 57.7189
v  20.6972 18.7671 58.7335
v  20.6972 18.7671 56.7042
v  22.0581 20.9205 57.7189
v  20.3428 20.5356 58.7335
v  20.3428 20.5356 56.7042
v  21.6032 22.7505 57.7189
v  19.9074 22.2875 58.7335
v  19.9074 22.2875 56.7042
v  21.0680 24.5473 57.7189
v  19.3895 24.0262 58.7335
v  19.3895 24.0262 56.7042
v  19.7552 28.6107 57.7189
v  19.3496 26.1060 58.7335
v  19.3496 26.1060 56.7042
v  14.1996 -0.1783 54.7326
v  13.4362 18.7401 53.7665
v  16.4943 18.9922 54.9769
v  17.2605 0.0072 55.9464
v  13.9067 18.9922 57.0216
v  14.6729 0.0072 57.9912
v  13.3001 20.6956 53.5943
v  16.3444 21.1466 54.7872
v  13.7568 21.1466 56.8319
v  13.0586 22.5679 53.2888
v  16.0693 23.2796 54.4391
v  13.4818 23.2796 56.4839
v  12.7116 24.3904 52.8496
v  15.6740 25.3556 53.9389
v  13.0865 25.3556 55.9836
v  12.2619 26.1515 52.2806
v  15.1618 27.3616 53.2907
v  12.5743 27.3616 55.3354
v  11.7126 27.8396 51.5854
v  14.5361 29.2845 52.4988
v  11.9485 29.2845 54.5435
v  11.0665 29.4432 50.7678
v  13.8001 31.1113 51.5674
v  11.2125 31.1113 53.6122
v  10.3093 30.9861 49.8096
v  12.9659 32.8111 50.5117
v  10.3783 32.8111 52.5565
v  9.8488 31.8393 49.2268
v  12.4173 33.8273 49.8176
v  9.8298 33.8273 51.8624
v  9.0203 33.0840 48.1784
v  11.3859 35.3770 48.5123
v  8.7983 35.3770 50.5571
v  8.1300 33.9488 47.0517
v  10.1823 36.5460 46.9893
v  7.5948 36.5460 49.0340
v  7.1615 34.4986 45.8262
v  8.8752 37.2882 45.3351
v  6.2876 37.2882 47.3799
v  6.1478 34.7255 44.5434
v  7.5085 37.5940 43.6056
v  4.9209 37.5940 45.6503
v  5.1231 34.6217 43.2466
v  6.1254 37.4539 41.8554
v  3.5379 37.4539 43.9001
v  4.1204 34.1806 41.9778
v  4.7700 36.8577 40.1402
v  2.1824 36.8577 42.1849
v  3.1131 33.3467 40.7031
v  3.5159 35.8195 38.5532
v  0.9284 35.8195 40.5979
v  0.4479 30.5382 37.3303
v  2.6066 34.1178 37.4024
v  0.0190 34.1178 39.4472
v  22.0206 0.2800 64.6802
v  19.4450 28.8967 67.2136
v  18.3372 28.4506 71.2663
v  20.9140 -0.1783 68.7318
v  15.3746 28.4506 68.2542
v  17.9513 -0.1783 65.7198
v  19.2302 31.4195 67.4249
v  18.1211 30.9892 71.4789
v  15.1585 30.9892 68.4668
v  19.0166 33.9706 67.6350
v  17.9096 33.5164 71.6869
v  14.9469 33.5164 68.6749
v  18.7724 36.5502 67.8751
v  17.6736 36.0094 71.9190
v  14.7109 36.0094 68.9070
v  18.4653 39.1434 68.1773
v  17.3842 38.4522 72.2036
v  14.4216 38.4522 69.1916
v  18.0611 41.7354 68.5748
v  17.0135 40.8295 72.5683
v  14.0509 40.8295 69.5563
v  17.5242 44.3090 69.1029
v  16.5343 43.1267 73.0397
v  13.5716 43.1267 70.0276
v  16.8275 46.8084 69.7882
v  15.9150 45.3487 73.6488
v  12.9523 45.3487 70.6368
v  16.3256 48.2756 70.2819
v  15.4832 46.6107 74.0735
v  12.5206 46.6107 71.0615
v  15.7826 49.6795 70.8159
v  15.0020 47.8549 74.5468
v  12.0394 47.8549 71.5348
v  15.1901 51.0451 71.3987
v  14.4769 49.0651 75.0633
v  11.5143 49.0651 72.0513
v  14.5491 52.3696 72.0293
v  13.9088 50.2390 75.6221
v  10.9461 50.2390 72.6101
v  13.8603 53.6505 72.7068
v  13.2984 51.3742 76.2225
v  10.3357 51.3742 73.2105
v  13.1248 54.8849 73.4302
v  12.6465 52.4682 76.8637
v  9.6839 52.4682 73.8517
v  12.3584 56.0476 74.1841
v  11.9466 53.5300 77.5521
v  8.9840 53.5300 74.5401
v  9.4531 60.2392 77.0418
v  11.4737 55.4045 78.0173
v  8.5110 55.4045 75.0053
# 219 vertices

vn 0.0409 -0.5931 0.8041
vn 0.0507 -0.0727 0.9961
vn -0.8847 0.0371 -0.4647
vn -0.7421 -0.5347 -0.4042
vn 0.8329 0.0371 -0.5522
vn 0.6973 -0.5347 -0.4775
vn 0.0503 -0.1497 0.9874
vn -0.8787 0.0780 -0.4710
vn 0.8263 0.0780 -0.5578
vn 0.0492 -0.2506 0.9668
vn -0.8782 0.1305 -0.4602
vn 0.8269 0.1305 -0.5470
vn 0.0477 -0.3484 0.9361
vn -0.8774 0.1815 -0.4441
vn 0.8277 0.1815 -0.5310
vn 0.0456 -0.4425 0.8956
vn -0.8764 0.2304 -0.4230
vn 0.8288 0.2305 -0.5099
vn 0.0431 -0.5320 0.8456
vn -0.8750 0.2771 -0.3970
vn 0.8301 0.2771 -0.4839
vn 0.0401 -0.6163 0.7865
vn -0.8733 0.3211 -0.3664
vn 0.8316 0.3211 -0.4532
vn 0.0375 -0.6759 0.7361
vn -0.8778 0.3449 -0.3323
vn 0.8395 0.3449 -0.4198
vn 0.0357 -0.7120 0.7013
vn -0.8773 0.3628 -0.3141
vn 0.8409 0.3628 -0.4016
vn 0.0330 -0.7607 0.6483
vn -0.8704 0.3953 -0.2935
vn 0.8361 0.3953 -0.3803
vn 0.0291 -0.8197 0.5721
vn -0.8684 0.4259 -0.2538
vn 0.8382 0.4259 -0.3407
vn 0.0250 -0.8709 0.4908
vn -0.8664 0.4524 -0.2115
vn 0.8403 0.4526 -0.2985
vn 0.0206 -0.9140 0.4051
vn -0.8640 0.4749 -0.1670
vn 0.8427 0.4748 -0.2539
vn 0.0161 -0.9488 0.3155
vn -0.8617 0.4929 -0.1205
vn 0.8450 0.4929 -0.2074
vn 0.0113 -0.9748 0.2227
vn -0.8591 0.5066 -0.0723
vn 0.8473 0.5067 -0.1592
vn 0.0077 -0.9884 0.1515
vn -0.8483 0.5294 -0.0065
vn 0.8433 0.5294 -0.0927
vn 0.0500 -0.1821 0.9820
vn -0.8646 0.4472 0.2290
vn 0.8834 0.4472 0.1400
vn -0.4618 -0.5623 0.6860
vn -0.5584 0.0022 0.8296
vn -0.4431 -0.0011 -0.8965
vn -0.3634 -0.5509 -0.7513
vn 0.9973 -0.0011 0.0731
vn 0.8328 -0.5509 0.0538
vn -0.5581 0.0293 0.8292
vn -0.4470 -0.0144 -0.8944
vn 0.9969 -0.0144 0.0774
vn -0.5572 0.0654 0.8278
vn -0.4472 -0.0322 -0.8938
vn 0.9964 -0.0322 0.0779
vn -0.5555 0.1014 0.8253
vn -0.4477 -0.0500 -0.8928
vn 0.9956 -0.0500 0.0788
vn -0.5531 0.1375 0.8217
vn -0.4485 -0.0679 -0.8912
vn 0.9945 -0.0679 0.0800
vn -0.5499 0.1736 0.8170
vn -0.4494 -0.0858 -0.8892
vn 0.9930 -0.0858 0.0817
vn -0.5460 0.2098 0.8111
vn -0.4506 -0.1038 -0.8867
vn 0.9911 -0.1038 0.0838
vn -0.5426 0.2362 0.8061
vn -0.3971 -0.0590 -0.9159
vn 0.9980 -0.0590 0.0232
vn 0.0003 1.0000 -0.0005
vn -0.6753 0.1461 -0.7229
vn 0.9239 0.1461 0.3536
vn 0.7991 -0.5619 -0.2141
vn 0.9659 0.0029 -0.2588
vn -0.2535 -0.0014 0.9673
vn -0.2200 -0.5511 0.8049
vn -0.7032 -0.0014 -0.7110
vn -0.5930 -0.5511 -0.5871
vn 0.9653 0.0373 -0.2586
vn -0.2478 -0.0183 0.9686
vn -0.6990 -0.0183 -0.7149
vn 0.9626 0.0831 -0.2579
vn -0.2465 -0.0407 0.9683
vn -0.6976 -0.0407 -0.7153
vn 0.9579 0.1287 -0.2567
vn -0.2443 -0.0631 0.9677
vn -0.6954 -0.0631 -0.7159
vn 0.9512 0.1740 -0.2549
vn -0.2410 -0.0853 0.9668
vn -0.6919 -0.0853 -0.7169
vn 0.9425 0.2189 -0.2525
vn -0.2366 -0.1073 0.9657
vn -0.6878 -0.1074 -0.7179
vn 0.9318 0.2634 -0.2497
vn -0.2314 -0.1292 0.9642
vn -0.6826 -0.1292 -0.7193
vn 0.9225 0.2965 -0.2472
vn -0.3097 -0.0798 0.9475
vn -0.7420 -0.0798 -0.6657
vn -0.0013 1.0000 0.0003
vn 0.0312 0.1792 0.9833
vn -0.4647 0.1792 -0.8672
vn -0.6368 -0.6076 -0.4746
vn -0.7988 -0.0883 -0.5951
vn 0.9211 0.0450 -0.3868
vn 0.7923 -0.5265 -0.3083
vn -0.1069 0.0450 0.9932
vn -0.0688 -0.5265 0.8474
vn -0.7919 -0.1578 -0.5899
vn 0.9216 0.0819 -0.3794
vn -0.0997 0.0819 0.9916
vn -0.7767 -0.2489 -0.5786
vn 0.9137 0.1291 -0.3853
vn -0.1076 0.1291 0.9858
vn -0.7549 -0.3376 -0.5623
vn 0.9024 0.1752 -0.3937
vn -0.1190 0.1751 0.9773
vn -0.7266 -0.4232 -0.5413
vn 0.8877 0.2196 -0.4048
vn -0.1336 0.2196 0.9664
vn -0.6920 -0.5054 -0.5155
vn 0.8698 0.2622 -0.4180
vn -0.1516 0.2622 0.9530
vn -0.6513 -0.5834 -0.4852
vn 0.8486 0.3027 -0.4338
vn -0.1725 0.3028 0.9373
vn -0.6170 -0.6388 -0.4596
vn 0.8284 0.3256 -0.4557
vn -0.1996 0.3255 0.9242
vn -0.5765 -0.6951 -0.4295
vn 0.8103 0.3623 -0.4605
vn -0.2093 0.3623 0.9082
vn -0.4828 -0.7985 -0.3596
vn 0.7636 0.4324 -0.4794
vn -0.2408 0.4324 0.8689
vn -0.3418 -0.9046 -0.2546
vn 0.6873 0.4890 -0.5370
vn -0.3178 0.4891 0.8123
vn -0.1892 -0.9718 -0.1409
vn 0.6050 0.5249 -0.5988
vn -0.4006 0.5248 0.7511
vn -0.0301 -0.9993 -0.0224
vn 0.5190 0.5397 -0.6628
vn -0.4865 0.5396 0.6871
vn 0.1313 -0.9865 0.0978
vn 0.4316 0.5334 -0.7275
vn -0.5735 0.5335 0.6217
vn 0.2902 -0.9322 0.2162
vn 0.3451 0.5047 -0.7913
vn -0.6593 0.5049 0.5571
vn 0.4030 -0.8646 0.3002
vn 0.2039 0.4444 -0.8723
vn -0.7775 0.4444 0.4450
vn -0.4432 -0.8334 -0.3301
vn 0.2224 0.0559 -0.9734
vn -0.8690 0.0559 0.4917
vn 0.4539 -0.4461 -0.7713
vn 0.5034 0.1219 -0.8554
vn 0.4934 -0.0611 0.8676
vn 0.4467 -0.6025 0.6614
vn -0.9981 -0.0611 -0.0099
vn -0.7951 -0.6024 -0.0696
vn 0.5037 0.1176 -0.8559
vn 0.4942 -0.0588 0.8674
vn -0.9982 -0.0588 -0.0108
vn 0.5032 0.1241 -0.8552
vn 0.4979 -0.0617 0.8650
vn -0.9980 -0.0617 -0.0153
vn 0.5016 0.1478 -0.8524
vn 0.5024 -0.0729 0.8616
vn -0.9971 -0.0729 -0.0207
vn 0.4980 0.1888 -0.8464
vn 0.5079 -0.0924 0.8564
vn -0.9953 -0.0924 -0.0280
vn 0.4914 0.2474 -0.8351
vn 0.5149 -0.1201 0.8488
vn -0.9920 -0.1201 -0.0379
vn 0.4800 0.3228 -0.8157
vn 0.5241 -0.1555 0.8373
vn -0.9865 -0.1554 -0.0516
vn 0.4651 0.3987 -0.7904
vn 0.5287 -0.1931 0.8265
vn -0.9793 -0.1931 -0.0608
vn 0.4516 0.4549 -0.7675
vn 0.5303 -0.2227 0.8180
vn -0.9726 -0.2227 -0.0664
vn 0.4396 0.4985 -0.7471
vn 0.5362 -0.2441 0.8080
vn -0.9667 -0.2441 -0.0763
vn 0.4265 0.5409 -0.7249
vn 0.5426 -0.2649 0.7972
vn -0.9603 -0.2649 -0.0873
vn 0.4124 0.5821 -0.7008
vn 0.5496 -0.2850 0.7853
vn -0.9534 -0.2850 -0.0991
vn 0.3971 0.6219 -0.6749
vn 0.5570 -0.3045 0.7727
vn -0.9459 -0.3045 -0.1117
vn 0.3809 0.6603 -0.6473
vn 0.5651 -0.3232 0.7591
vn -0.9380 -0.3233 -0.1252
vn 0.3680 0.6880 -0.6254
vn 0.4560 -0.2871 0.8424
vn -0.9578 -0.2871 0.0104
vn -0.1823 0.9332 0.3098
vn 0.6915 0.1121 0.7137
vn -0.9596 0.1122 -0.2582
# 219 vertex normals

o Bundle_2
g Bundle_2
s 1
f 1//1 2//2 3//3 4//4 
s 2
f 4//4 3//3 5//5 6//6 
s 4
f 6//6 5//5 2//2 1//1 
s 1
f 2//2 7//7 8//8 3//3 
s 2
f 3//3 8//8 9//9 5//5 
s 4
f 5//5 9//9 7//7 2//2 
s 1
f 7//7 10//10 11//11 8//8 
s 2
f 8//8 11//11 12//12 9//9 
s 4
f 9//9 12//12 10//10 7//7 
s 1
f 10//10 13//13 14//14 11//11 
s 2
f 11//11 14//14 15//15 12//12 
s 4
f 12//12 15//15 13//13 10//10 
s 1
f 13//13 16//16 17//17 14//14 
s 2
f 14//14 17//17 18//18 15//15 
s 4
f 15//15 18//18 16//16 13//13 
s 1
f 16//16 19//19 20//20 17//17 
s 2
f 17//17 20//20 21//21 18//18 
s 4
f 18//18 21//21 19//19 16//16 
s 1
f 19//19 22//22 23//23 20//20 
s 2
f 20//20 23//23 24//24 21//21 
s 4
f 21//21 24//24 22//22 19//19 
s 1
f 22//22 25//25 26//26 23//23 
s 2
f 23//23 26//26 27//27 24//24 
s 4
f 24//24 27//27 25//25 22//22 
s 1
f 25//25 28//28 29//29 26//26 
s 2
f 26//26 29//29 30//30 27//27 
s 4
f 27//27 30//30 28//28 25//25 
s 1
f 28//28 31//31 32//32 29//29 
s 2
f 29//29 32//32 33//33 30//30 
s 4
f 30//30 33//33 31//31 28//28 
s 1
f 31//31 34//34 35//35 32//32 
s 2
f 32//32 35//35 36//36 33//33 
s 4
f 33//33 36//36 34//34 31//31 
s 1
f 34//34 37//37 38//38 35//35 
s 2
f 35//35 38//38 39//39 36//36 
s 4
f 36//36 39//39 37//37 34//34 
s 1
f 37//37 40//40 41//41 38//38 
s 2
f 38//38 41//41 42//42 39//39 
s 4
f 39//39 42//42 40//40 37//37 
s 1
f 40//40 43//43 44//44 41//41 
s 2
f 41//41 44//44 45//45 42//42 
s 4
f 42//42 45//45 43//43 40//40 
s 1
f 43//43 46//46 47//47 44//44 
s 2
f 44//44 47//47 48//48 45//45 
s 4
f 45//45 48//48 46//46 43//43 
s 1
f 46//46 49//49 50//50 47//47 
s 2
f 47//47 50//50 51//51 48//48 
s 4
f 48//48 51//51 49//49 46//46 
s 1
f 49//49 52//52 53//53 50//50 
s 2
f 50//50 53//53 54//54 51//51 
s 4
f 51//51 54//54 52//52 49//49 
s 8
f 4//4 6//6 1//1 
f 54//54 53//53 52//52 
s 1
f 55//55 56//56 57//57 58//58 
s 2
f 58//58 57//57 59//59 60//60 
s 4
f 60//60 59//59 56//56 55//55 
s 1
f 56//56 61//61 62//62 57//57 
s 2
f 57//57 62//62 63//63 59//59 
s 4
f 59//59 63//63 61//61 56//56 
s 1
f 61//61 64//64 65//65 62//62 
s 2
f 62//62 65//65 66//66 63//63 
s 4
f 63//63 66//66 64//64 61//61 
s 1
f 64//64 67//67 68//68 65//65 
s 2
f 65//65 68//68 69//69 66//66 
s 4
f 66//66 69//69 67//67 64//64 
s 1
f 67//67 70//70 71//71 68//68 
s 2
f 68//68 71//71 72//72 69//69 
s 4
f 69//69 72//72 70//70 67//67 
s 1
f 70//70 73//73 74//74 71//71 
s 2
f 71//71 74//74 75//75 72//72 
s 4
f 72//72 75//75 73//73 70//70 
s 1
f 73//73 76//76 77//77 74//74 
s 2
f 74//74 77//77 78//78 75//75 
s 4
f 75//75 78//78 76//76 73//73 
s 1
f 76//76 79//79 80//80 77//77 
s 2
f 77//77 80//80 81//81 78//78 
s 4
f 78//78 81//81 79//79 76//76 
s 1
f 79//79 82//82 83//83 80//80 
s 2
f 80//80 83//83 84//84 81//81 
s 4
f 81//81 84//84 82//82 79//79 
s 8
f 58//58 60//60 55//55 
f 84//84 83//83 82//82 
s 1
f 85//85 86//86 87//87 88//88 
s 2
f 88//88 87//87 89//89 90//90 
s 4
f 90//90 89//89 86//86 85//85 
s 1
f 86//86 91//91 92//92 87//87 
s 2
f 87//87 92//92 93//93 89//89 
s 4
f 89//89 93//93 91//91 86//86 
s 1
f 91//91 94//94 95//95 92//92 
s 2
f 92//92 95//95 96//96 93//93 
s 4
f 93//93 96//96 94//94 91//91 
s 1
f 94//94 97//97 98//98 95//95 
s 2
f 95//95 98//98 99//99 96//96 
s 4
f 96//96 99//99 97//97 94//94 
s 1
f 97//97 100//100 101//101 98//98 
s 2
f 98//98 101//101 102//102 99//99 
s 4
f 99//99 102//102 100//100 97//97 
s 1
f 100//100 103//103 104//104 101//101 
s 2
f 101//101 104//104 105//105 102//102 
s 4
f 102//102 105//105 103//103 100//100 
s 1
f 103//103 106//106 107//107 104//104 
s 2
f 104//104 107//107 108//108 105//105 
s 4
f 105//105 108//108 106//106 103//103 
s 1
f 106//106 109//109 110//110 107//107 
s 2
f 107//107 110//110 111//111 108//108 
s 4
f 108//108 111//111 109//109 106//106 
s 1
f 109//109 112//112 113//113 110//110 
s 2
f 110//110 113//113 114//114 111//111 
s 4
f 111//111 114//114 112//112 109//109 
s 8
f 88//88 90//90 85//85 
f 114//114 113//113 112//112 
s 1
f 115//115 116//116 117//117 118//118 
s 2
f 118//118 117//117 119//119 120//120 
s 4
f 120//120 119//119 116//116 115//115 
s 1
f 116//116 121//121 122//122 117//117 
s 2
f 117//117 122//122 123//123 119//119 
s 4
f 119//119 123//123 121//121 116//116 
s 1
f 121//121 124//124 125//125 122//122 
s 2
f 122//122 125//125 126//126 123//123 
s 4
f 123//123 126//126 124//124 121//121 
s 1
f 124//124 127//127 128//128 125//125 
s 2
f 125//125 128//128 129//129 126//126 
s 4
f 126//126 129//129 127//127 124//124 
s 1
f 127//127 130//130 131//131 128//128 
s 2
f 128//128 131//131 132//132 129//129 
s 4
f 129//129 132//132 130//130 127//127 
s 1
f 130//130 133//133 134//134 131//131 
s 2
f 131//131 134//134 135//135 132//132 
s 4
f 132//132 135//135 133//133 130//130 
s 1
f 133//133 136//136 137//137 134//134 
s 2
f 134//134 137//137 138//138 135//135 
s 4
f 135//135 138//138 136//136 133//133 
s 1
f 136//136 139//139 140//140 137//137 
s 2
f 137//137 140//140 141//141 138//138 
s 4
f 138//138 141//141 139//139 136//136 
s 1
f 139//139 142//142 143//143 140//140 
s 2
f 140//140 143//143 144//144 141//141 
s 4
f 141//141 144//144 142//142 139//139 
s 1
f 142//142 145//145 146//146 143//143 
s 2
f 143//143 146//146 147//147 144//144 
s 4
f 144//144 147//147 145//145 142//142 
s 1
f 145//145 148//148 149//149 146//146 
s 2
f 146//146 149//149 150//150 147//147 
s 4
f 147//147 150//150 148//148 145//145 
s 1
f 148//148 151//151 152//152 149//149 
s 2
f 149//149 152//152 153//153 150//150 
s 4
f 150//150 153//153 151//151 148//148 
s 1
f 151//151 154//154 155//155 152//152 
s 2
f 152//152 155//155 156//156 153//153 
s 4
f 153//153 156//156 154//154 151//151 
s 1
f 154//154 157//157 158//158 155//155 
s 2
f 155//155 158//158 159//159 156//156 
s 4
f 156//156 159//159 157//157 154//154 
s 1
f 157//157 160//160 161//161 158//158 
s 2
f 158//158 161//161 162//162 159//159 
s 4
f 159//159 162//162 160//160 157//157 
s 1
f 160//160 163//163 164//164 161//161 
s 2
f 161//161 164//164 165//165 162//162 
s 4
f 162//162 165//165 163//163 160//160 
s 1
f 163//163 166//166 167//167 164//164 
s 2
f 164//164 167//167 168//168 165//165 
s 4
f 165//165 168//168 166//166 163//163 
s 8
f 118//118 120//120 115//115 
f 168//168 167//167 166//166 
s 1
f 169//169 170//170 171//171 172//172 
s 2
f 172//172 171//171 173//173 174//174 
s 4
f 174//174 173//173 170//170 169//169 
s 1
f 170//170 175//175 176//176 171//171 
s 2
f 171//171 176//176 177//177 173//173 
s 4
f 173//173 177//177 175//175 170//170 
s 1
f 175//175 178//178 179//179 176//176 
s 2
f 176//176 179//179 180//180 177//177 
s 4
f 177//177 180//180 178//178 175//175 
s 1
f 178//178 181//181 182//182 179//179 
s 2
f 179//179 182//182 183//183 180//180 
s 4
f 180//180 183//183 181//181 178//178 
s 1
f 181//181 184//184 185//185 182//182 
s 2
f 182//182 185//185 186//186 183//183 
s 4
f 183//183 186//186 184//184 181//181 
s 1
f 184//184 187//187 188//188 185//185 
s 2
f 185//185 188//188 189//189 186//186 
s 4
f 186//186 189//189 187//187 184//184 
s 1
f 187//187 190//190 191//191 188//188 
s 2
f 188//188 191//191 192//192 189//189 
s 4
f 189//189 192//192 190//190 187//187 
s 1
f 190//190 193//193 194//194 191//191 
s 2
f 191//191 194//194 195//195 192//192 
s 4
f 192//192 195//195 193//193 190//190 
s 1
f 193//193 196//196 197//197 194//194 
s 2
f 194//194 197//197 198//198 195//195 
s 4
f 195//195 198//198 196//196 193//193 
s 1
f 196//196 199//199 200//200 197//197 
s 2
f 197//197 200//200 201//201 198//198 
s 4
f 198//198 201//201 199//199 196//196 
s 1
f 199//199 202//202 203//203 200//200 
s 2
f 200//200 203//203 204//204 201//201 
s 4
f 201//201 204//204 202//202 199//199 
s 1
f 202//202 205//205 206//206 203//203 
s 2
f 203//203 206//206 207//207 204//204 
s 4
f 204//204 207//207 205//205 202//202 
s 1
f 205//205 208//208 209//209 206//206 
s 2
f 206//206 209//209 210//210 207//207 
s 4
f 207//207 210//210 208//208 205//205 
s 1
f 208//208 211//211 212//212 209//209 
s 2
f 209//209 212//212 213//213 210//210 
s 4
f 210//210 213//213 211//211 208//208 
s 1
f 211//211 214//214 215//215 212//212 
s 2
f 212//212 215//215 216//216 213//213 
s 4
f 213//213 216//216 214//214 211//211 
s 1
f 214//214 217//217 218//218 215//215 
s 2
f 215//215 218//218 219//219 216//216 
s 4
f 216//216 219//219 217//217 214//214 
s 8
f 172//172 174//174 169//169 
f 219//219 218//218 217//217 
# 204 polygons - 10 triangles

