# Blender 3.3.1
# www.blender.org
mtllib lantern.mtl
o Cube
v -0.631135 -0.398948 0.631135
v -0.631135 -0.398948 -0.631135
v 0.631135 -0.398948 0.631135
v 0.631135 -0.398948 -0.631135
v 0.631135 0.792521 -0.631135
v 0.631135 0.792521 0.631135
v -0.631135 0.792521 -0.631135
v -0.631135 0.792521 0.631135
v -0.819136 1.323945 0.819136
v 0.762484 -1.000000 -0.762484
v -0.819136 1.323945 -0.819136
v 0.762484 -1.000000 0.762484
v 0.819136 1.323945 0.819136
v -0.762484 -1.000000 -0.762484
v 0.819136 1.323945 -0.819136
v -0.762484 -1.000000 0.762484
v -0.395257 1.587568 0.395257
v -0.395257 1.587568 -0.395257
v 0.395257 1.587568 0.395257
v 0.395257 1.587568 -0.395257
v -0.286140 1.634351 0.286140
v -0.286140 1.634351 -0.286140
v 0.286140 1.634351 0.286140
v 0.286140 1.634351 -0.286140
v -0.286140 2.443814 0.286140
v -0.286140 2.443814 -0.286140
v 0.286140 2.443814 0.286140
v 0.286140 2.443814 -0.286140
v -0.286140 2.443814 0.286140
v -0.286140 2.443814 -0.286140
v 0.286140 2.443814 0.286140
v 0.286140 2.443814 -0.286140
v 0.286140 1.634351 0.286140
v 0.286140 1.634351 -0.286140
v 0.286140 2.443814 0.286140
v 0.286140 2.443814 -0.286140
v 0.286140 1.634351 0.286140
v 0.286140 1.634351 -0.286140
v 0.286140 2.443814 0.286140
v 0.286140 2.443814 -0.286140
v 0.286140 1.634351 0.286140
v 0.286140 1.634351 -0.286140
v 0.286140 2.443814 0.286140
v 0.286140 2.443814 -0.286140
v 0.286140 1.756036 0.200110
v 0.286140 1.756036 -0.200110
v 0.286140 2.322129 0.200110
v 0.286140 2.322129 -0.200110
v -0.295523 1.756036 0.200110
v -0.295523 1.756036 -0.200110
v -0.295523 2.322129 0.200110
v -0.295523 2.322129 -0.200110
v 0.631135 -0.275965 0.500844
v 0.631135 -0.275965 -0.500844
v 0.631135 0.669538 0.500844
v 0.631135 0.669538 -0.500844
v 0.631135 -0.275965 0.500844
v 0.631135 -0.275965 -0.500844
v 0.631135 0.669538 0.500844
v 0.631135 0.669538 -0.500844
v -0.630620 -0.275965 0.500844
v -0.630620 -0.275965 -0.500844
v -0.630620 0.669538 0.500844
v -0.630620 0.669538 -0.500844
v -0.488273 -0.264099 0.631135
v 0.488273 -0.264099 0.631135
v 0.488273 0.657672 0.631135
v -0.488273 0.657672 0.631135
v -0.488273 -0.264099 0.631135
v 0.488273 -0.264099 0.631135
v 0.488273 0.657672 0.631135
v -0.488273 0.657672 0.631135
v -0.488273 -0.264099 -0.491674
v 0.488273 -0.264099 -0.491674
v 0.488273 0.657672 -0.491674
v -0.488273 0.657672 -0.491674
v 0.519326 -0.293410 -0.631135
v -0.519326 -0.293410 -0.631135
v 0.519326 0.686983 -0.631135
v -0.519326 0.686983 -0.631135
v 0.519326 -0.293410 -0.457337
v -0.519326 -0.293410 -0.457337
v 0.519326 0.686983 -0.457337
v -0.519326 0.686983 -0.457337
vn -0.0000 -0.2135 -0.9769
vn -0.0000 -0.2135 0.9769
vn -0.0000 -0.0000 1.0000
vn 0.9769 -0.2135 -0.0000
vn -0.9769 -0.2135 -0.0000
vn 1.0000 -0.0000 -0.0000
vn -0.0000 -0.0000 -1.0000
vn -0.0000 0.3335 0.9427
vn -1.0000 -0.0000 -0.0000
vn -0.0000 -0.8492 0.5281
vn 0.9427 0.3335 -0.0000
vn -0.9427 0.3335 -0.0000
vn -0.0000 0.3335 -0.9427
vn -0.0000 1.0000 -0.0000
vn -0.0000 -0.9191 -0.3941
vn 0.5281 -0.8492 -0.0000
vn -0.0000 -0.8492 -0.5281
vn -0.5281 -0.8492 -0.0000
vn 0.3941 -0.9191 -0.0000
vn -0.3941 -0.9191 -0.0000
vn -0.0000 -0.9191 0.3941
vn -0.0000 -1.0000 -0.0000
vt 0.125000 0.750000
vt 0.125000 0.500000
vt 0.375000 0.750000
vt 0.375000 0.500000
vt 0.375000 0.500000
vt 0.375000 0.750000
vt 0.125000 0.500000
vt 0.125000 0.750000
vt 0.125000 0.750000
vt 0.375000 0.500000
vt 0.125000 0.500000
vt 0.375000 0.750000
vt 0.375000 0.750000
vt 0.125000 0.500000
vt 0.375000 0.500000
vt 0.125000 0.750000
vt 0.125000 0.750000
vt 0.125000 0.500000
vt 0.375000 0.750000
vt 0.375000 0.500000
vt 0.125000 0.750000
vt 0.125000 0.500000
vt 0.375000 0.750000
vt 0.375000 0.500000
vt 0.125000 0.750000
vt 0.125000 0.500000
vt 0.375000 0.750000
vt 0.375000 0.500000
vt 0.125000 0.750000
vt 0.125000 0.500000
vt 0.375000 0.750000
vt 0.375000 0.500000
vt 0.375000 0.750000
vt 0.375000 0.500000
vt 0.375000 0.750000
vt 0.375000 0.500000
vt 0.375000 0.750000
vt 0.375000 0.500000
vt 0.375000 0.750000
vt 0.375000 0.500000
vt 0.375000 0.750000
vt 0.375000 0.500000
vt 0.375000 0.750000
vt 0.375000 0.500000
vt 0.375000 0.750000
vt 0.375000 0.500000
vt 0.375000 0.750000
vt 0.375000 0.500000
vt 0.375000 0.750000
vt 0.375000 0.500000
vt 0.375000 0.750000
vt 0.375000 0.500000
vt 0.375000 0.750000
vt 0.375000 0.500000
vt 0.375000 0.750000
vt 0.375000 0.500000
vt 0.375000 0.750000
vt 0.375000 0.500000
vt 0.375000 0.750000
vt 0.375000 0.500000
vt 0.375000 0.750000
vt 0.375000 0.500000
vt 0.375000 0.750000
vt 0.375000 0.500000
vt 0.125000 0.750000
vt 0.375000 0.750000
vt 0.375000 0.750000
vt 0.125000 0.750000
vt 0.125000 0.750000
vt 0.375000 0.750000
vt 0.375000 0.750000
vt 0.125000 0.750000
vt 0.125000 0.750000
vt 0.375000 0.750000
vt 0.375000 0.750000
vt 0.125000 0.750000
vt 0.375000 0.500000
vt 0.125000 0.500000
vt 0.375000 0.500000
vt 0.125000 0.500000
vt 0.375000 0.500000
vt 0.125000 0.500000
vt 0.375000 0.500000
vt 0.125000 0.500000
s 0
usemtl Material
f 12/12/1 16/16/1 1/1/1 3/3/1
f 14/14/2 10/10/2 4/4/2 2/2/2
f 7/7/3 2/2/3 78/78/3 80/80/3
f 16/16/4 14/14/4 2/2/4 1/1/4
f 10/10/5 12/12/5 3/3/5 4/4/5
f 1/1/6 2/2/6 7/7/6 8/8/6
f 3/3/7 1/1/7 65/65/7 66/66/7
f 7/7/8 5/5/8 15/15/8 11/11/8
f 4/4/9 3/3/9 53/53/9 54/54/9
f 11/11/10 15/15/10 20/20/10 18/18/10
f 8/8/11 7/7/11 11/11/11 9/9/11
f 5/5/12 6/6/12 13/13/12 15/15/12
f 6/6/13 8/8/13 9/9/13 13/13/13
f 14/14/14 16/16/14 12/12/14 10/10/14
f 19/19/15 17/17/15 21/21/15 23/23/15
f 9/9/16 11/11/16 18/18/16 17/17/16
f 13/13/17 9/9/17 17/17/17 19/19/17
f 15/15/18 13/13/18 19/19/18 20/20/18
f 28/28/14 24/24/14 42/42/14 44/44/14
f 17/17/19 18/18/19 22/22/19 21/21/19
f 20/20/20 19/19/20 23/23/20 24/24/20
f 18/18/21 20/20/21 24/24/21 22/22/21
f 26/26/14 28/28/14 32/32/14 30/30/14
f 22/22/3 24/24/3 28/28/3 26/26/3
f 23/23/7 21/21/7 25/25/7 27/27/7
f 21/21/6 22/22/6 26/26/6 25/25/6
f 30/30/22 32/32/22 31/31/22 29/29/22
f 27/27/14 25/25/14 29/29/14 31/31/14
f 25/25/14 26/26/14 30/30/14 29/29/14
f 28/28/14 27/27/14 31/31/14 32/32/14
f 32/32/14 31/31/14 35/35/14 36/36/14
f 24/24/14 23/23/14 33/33/14 34/34/14
f 36/36/14 35/35/14 39/39/14 40/40/14
f 34/34/14 33/33/14 37/37/14 38/38/14
f 44/44/9 42/42/9 46/46/9 48/48/9
f 27/27/14 28/28/14 44/44/14 43/43/14
f 24/24/14 23/23/14 41/41/14 42/42/14
f 23/23/14 27/27/14 43/43/14 41/41/14
f 45/45/3 47/47/3 51/51/3 49/49/3
f 43/43/9 44/44/9 48/48/9 47/47/9
f 41/41/9 43/43/9 47/47/9 45/45/9
f 42/42/9 41/41/9 45/45/9 46/46/9
f 50/50/9 49/49/9 51/51/9 52/52/9
f 46/46/22 45/45/22 49/49/22 50/50/22
f 48/48/7 46/46/7 50/50/7 52/52/7
f 47/47/14 48/48/14 52/52/14 51/51/14
f 53/53/14 55/55/14 59/59/14 57/57/14
f 6/6/9 5/5/9 56/56/9 55/55/9
f 5/5/9 4/4/9 54/54/9 56/56/9
f 3/3/9 6/6/9 55/55/9 53/53/9
f 60/60/7 58/58/7 62/62/7 64/64/7
f 56/56/14 54/54/14 58/58/14 60/60/14
f 54/54/14 53/53/14 57/57/14 58/58/14
f 55/55/14 56/56/14 60/60/14 59/59/14
f 62/62/9 61/61/9 63/63/9 64/64/9
f 58/58/22 57/57/22 61/61/22 62/62/22
f 59/59/14 60/60/14 64/64/14 63/63/14
f 57/57/3 59/59/3 63/63/3 61/61/3
f 65/65/14 68/68/14 72/72/14 69/69/14
f 6/6/7 3/3/7 66/66/7 67/67/7
f 8/8/7 6/6/7 67/67/7 68/68/7
f 1/1/7 8/8/7 68/68/7 65/65/7
f 69/69/9 72/72/9 76/76/9 73/73/9
f 66/66/14 65/65/14 69/69/14 70/70/14
f 68/68/14 67/67/14 71/71/14 72/72/14
f 67/67/14 66/66/14 70/70/14 71/71/14
f 74/74/7 73/73/7 76/76/7 75/75/7
f 70/70/22 69/69/22 73/73/22 74/74/22
f 72/72/14 71/71/14 75/75/14 76/76/14
f 71/71/6 70/70/6 74/74/6 75/75/6
f 80/80/9 78/78/9 82/82/9 84/84/9
f 2/2/3 4/4/3 77/77/3 78/78/3
f 5/5/3 7/7/3 80/80/3 79/79/3
f 4/4/3 5/5/3 79/79/3 77/77/3
f 82/82/3 81/81/3 83/83/3 84/84/3
f 77/77/6 79/79/6 83/83/6 81/81/6
f 79/79/14 80/80/14 84/84/14 83/83/14
f 78/78/22 77/77/22 81/81/22 82/82/22
