# Blender 3.3.1
# www.blender.org
mtllib river.mtl
o Cube
v 1.000000 -0.077206 -1.000000
v 1.000000 0.077206 -1.000000
v 1.000000 -0.077206 1.000000
v 1.000000 0.077206 1.000000
v -1.000000 -0.077206 -1.000000
v -1.000000 0.077206 -1.000000
v -1.000000 -0.077206 1.000000
v -1.000000 0.077206 1.000000
v 3.106319 -0.077206 -0.687673
v 3.106319 0.077206 -0.687673
v 3.106319 -0.077206 1.797873
v 3.106319 0.077206 1.797873
v 5.036368 -0.077206 -0.140100
v 5.036368 0.077206 -0.140100
v 5.036368 -0.077206 3.042253
v 5.036368 0.077206 3.042253
v 6.906471 -0.077206 1.380491
v 6.906471 0.077206 1.380491
v 6.906471 -0.077206 4.706558
v 6.906471 0.077206 4.706558
v 9.365410 -0.077206 2.212251
v 9.365410 0.077206 2.212251
v 9.365410 -0.077206 4.808876
v 9.365410 0.077206 4.808876
v 12.105192 -0.077206 0.763155
v 12.105192 0.077206 0.763155
v 12.105192 -0.077206 4.065155
v 12.105192 0.077206 4.065155
v 15.436916 -0.077206 -1.000000
v 15.436916 0.077206 -1.000000
v 15.436916 -0.077206 1.327143
v 15.436916 0.077206 1.327143
v 18.514109 -0.077206 -4.149454
v 18.514109 0.077206 -4.149454
v 18.514109 -0.077206 -0.481682
v 18.514109 0.077206 -0.481682
v 21.067005 -0.077206 -7.809515
v 21.067005 0.077206 -7.809515
v 21.067005 -0.077206 -3.472688
v 21.067005 0.077206 -3.472688
vn -0.0000 -1.0000 -0.0000
vn -0.0000 -0.0000 1.0000
vn -1.0000 -0.0000 -0.0000
vn -0.0000 1.0000 -0.0000
vn -0.3542 -0.0000 0.9352
vn -0.0000 -0.0000 -1.0000
vn 0.1467 -0.0000 -0.9892
vn 0.2729 -0.0000 -0.9620
vn -0.5419 -0.0000 0.8405
vn -0.0416 -0.0000 0.9991
vn -0.6648 -0.0000 0.7470
vn 0.6309 -0.0000 -0.7759
vn 0.3204 -0.0000 -0.9473
vn -0.4675 -0.0000 -0.8840
vn 0.2620 -0.0000 0.9651
vn 0.6349 -0.0000 0.7726
vn -0.4677 -0.0000 -0.8839
vn -0.7153 -0.0000 -0.6989
vn 0.5068 -0.0000 0.8621
vn 1.0000 -0.0000 -0.0000
vn -0.8202 -0.0000 -0.5721
vn 0.7606 -0.0000 0.6492
vt 0.625000 0.500000
vt 0.375000 0.500000
vt 0.625000 0.750000
vt 0.375000 0.750000
vt 0.875000 0.500000
vt 0.625000 0.250000
vt 0.125000 0.500000
vt 0.375000 0.250000
vt 0.875000 0.750000
vt 0.625000 1.000000
vt 0.625000 0.000000
vt 0.375000 1.000000
vt 0.375000 0.000000
vt 0.125000 0.750000
vt 0.625000 0.500000
vt 0.375000 0.500000
vt 0.625000 0.750000
vt 0.375000 0.750000
vt 0.625000 0.500000
vt 0.375000 0.500000
vt 0.625000 0.750000
vt 0.375000 0.750000
vt 0.625000 0.500000
vt 0.375000 0.500000
vt 0.625000 0.750000
vt 0.375000 0.750000
vt 0.625000 0.500000
vt 0.375000 0.500000
vt 0.625000 0.750000
vt 0.375000 0.750000
vt 0.625000 0.500000
vt 0.375000 0.500000
vt 0.625000 0.750000
vt 0.375000 0.750000
vt 0.625000 0.500000
vt 0.375000 0.500000
vt 0.625000 0.750000
vt 0.375000 0.750000
vt 0.625000 0.500000
vt 0.375000 0.500000
vt 0.625000 0.750000
vt 0.375000 0.750000
vt 0.625000 0.500000
vt 0.375000 0.500000
vt 0.625000 0.750000
vt 0.375000 0.750000
s 0
usemtl Material
f 1/1/1 3/3/1 7/9/1 5/5/1
f 4/4/2 8/12/2 7/10/2 3/3/2
f 8/13/3 6/8/3 5/6/3 7/11/3
f 6/7/4 8/14/4 4/4/4 2/2/4
f 3/3/5 11/17/5 12/18/5 4/4/5
f 6/8/6 2/2/6 1/1/6 5/6/6
f 9/15/1 13/19/1 15/21/1 11/17/1
f 2/2/7 10/16/7 9/15/7 1/1/7
f 4/4/4 12/18/4 10/16/4 2/2/4
f 1/1/1 9/15/1 11/17/1 3/3/1
f 16/22/4 20/26/4 18/24/4 14/20/4
f 10/16/8 14/20/8 13/19/8 9/15/8
f 12/18/4 16/22/4 14/20/4 10/16/4
f 11/17/9 15/21/9 16/22/9 12/18/9
f 19/25/10 23/29/10 24/30/10 20/26/10
f 15/21/11 19/25/11 20/26/11 16/22/11
f 13/19/1 17/23/1 19/25/1 15/21/1
f 14/20/12 18/24/12 17/23/12 13/19/12
f 21/27/1 25/31/1 27/33/1 23/29/1
f 17/23/1 21/27/1 23/29/1 19/25/1
f 18/24/13 22/28/13 21/27/13 17/23/13
f 20/26/4 24/30/4 22/28/4 18/24/4
f 28/34/4 32/38/4 30/36/4 26/32/4
f 22/28/14 26/32/14 25/31/14 21/27/14
f 24/30/4 28/34/4 26/32/4 22/28/4
f 23/29/15 27/33/15 28/34/15 24/30/15
f 29/35/1 33/39/1 35/41/1 31/37/1
f 27/33/16 31/37/16 32/38/16 28/34/16
f 25/31/1 29/35/1 31/37/1 27/33/1
f 26/32/17 30/36/17 29/35/17 25/31/17
f 33/39/1 37/43/1 39/45/1 35/41/1
f 30/36/18 34/40/18 33/39/18 29/35/18
f 32/38/4 36/42/4 34/40/4 30/36/4
f 31/37/19 35/41/19 36/42/19 32/38/19
f 38/44/20 40/46/20 39/45/20 37/43/20
f 34/40/21 38/44/21 37/43/21 33/39/21
f 36/42/4 40/46/4 38/44/4 34/40/4
f 35/41/22 39/45/22 40/46/22 36/42/22
